<svg xmlns="http://www.w3.org/2000/svg" viewBox="0 0 420 90" width="420" height="90">
  <defs>
    <style>@import url('https://fonts.googleapis.com/css2?family=Space+Grotesk:wght@700;800&amp;display=swap');</style>
  </defs>
  <!-- Icon -->
  <rect x="0" y="5" width="68" height="68" rx="16" fill="#0066FF"/>
  <circle cx="34" cy="39" r="6" fill="white"/>
  <circle cx="34" cy="16" r="3.5" fill="white" opacity="0.95"/>
  <circle cx="57" cy="39" r="3.5" fill="white" opacity="0.95"/>
  <circle cx="34" cy="62" r="3.5" fill="white" opacity="0.95"/>
  <circle cx="11" cy="39" r="3.5" fill="white" opacity="0.95"/>
  <line x1="34" y1="33" x2="34" y2="20" stroke="white" stroke-width="2" stroke-linecap="round" opacity="0.8"/>
  <line x1="40" y1="39" x2="53" y2="39" stroke="white" stroke-width="2" stroke-linecap="round" opacity="0.8"/>
  <line x1="34" y1="45" x2="34" y2="58" stroke="white" stroke-width="2" stroke-linecap="round" opacity="0.8"/>
  <line x1="28" y1="39" x2="15" y2="39" stroke="white" stroke-width="2" stroke-linecap="round" opacity="0.8"/>
  <line x1="37" y1="36" x2="50" y2="23" stroke="white" stroke-width="1" stroke-linecap="round" opacity="0.3"/>
  <line x1="37" y1="42" x2="50" y2="55" stroke="white" stroke-width="1" stroke-linecap="round" opacity="0.3"/>
  <line x1="31" y1="42" x2="18" y2="55" stroke="white" stroke-width="1" stroke-linecap="round" opacity="0.3"/>
  <line x1="31" y1="36" x2="18" y2="23" stroke="white" stroke-width="1" stroke-linecap="round" opacity="0.3"/>
  <circle cx="50" cy="23" r="2.5" fill="#00D4FF" opacity="0.9"/>
  <circle cx="50" cy="55" r="2.5" fill="#00D4FF" opacity="0.9"/>
  <circle cx="18" cy="55" r="2.5" fill="#00D4FF" opacity="0.9"/>
  <circle cx="18" cy="23" r="2.5" fill="#00D4FF" opacity="0.9"/>
  <!-- Wordmark dark (for light backgrounds) -->
  <text font-family="'Space Grotesk',Arial Black,sans-serif" font-weight="800" font-size="40" x="86" y="55" fill="#0A1628">AppTeck</text>
  <text font-family="'Space Grotesk',Arial Black,sans-serif" font-weight="800" font-size="40" x="282" y="55" fill="#0066FF">.ai</text>
  <!-- Tagline -->
  <text font-family="'Space Grotesk',Arial,sans-serif" font-weight="600" font-size="11" x="86" y="76" fill="#6B8AAA" letter-spacing="2">AI AGENTS FOR BUSINESS</text>
</svg>
